<svg width="48" height="48" viewBox="0 0 112 112" xml:space="preserve" xmlns:xlink="http://www.w3.org/1999/xlink" xmlns="http://www.w3.org/2000/svg"><defs><linearGradient id="f"><stop style="stop-color:#fdafbd;stop-opacity:1" offset="0"/></linearGradient><linearGradient id="e"><stop style="stop-color:#fff;stop-opacity:1" offset="0"/></linearGradient><linearGradient id="c"><stop style="stop-color:#000;stop-opacity:1" offset="0"/></linearGradient><linearGradient id="b"><stop style="stop-color:#fb3c3b;stop-opacity:.36862746" offset="0"/></linearGradient><linearGradient id="d"><stop style="stop-color:#e45b7d;stop-opacity:1" offset="0"/></linearGradient><linearGradient id="a"><stop style="stop-color:#fedbe0;stop-opacity:1" offset="0"/></linearGradient><linearGradient xlink:href="#a" id="i" x1="-19.501" y1="72.703" x2="91.005" y2="72.703" gradientUnits="userSpaceOnUse"/><linearGradient xlink:href="#b" id="j" x1="58.615" y1="54.219" x2="67.796" y2="54.219" gradientUnits="userSpaceOnUse"/><linearGradient xlink:href="#b" id="k" x1="34.921" y1="61.173" x2="43.072" y2="61.173" gradientUnits="userSpaceOnUse"/><linearGradient xlink:href="#c" id="l" gradientUnits="userSpaceOnUse" x1="66.811" y1="42.888" x2="70.931" y2="42.888"/><linearGradient xlink:href="#d" id="m" x1="64.075" y1="66.431" x2="72.789" y2="66.431" gradientUnits="userSpaceOnUse"/><linearGradient xlink:href="#d" id="n" x1="35.808" y1="65.143" x2="45.887" y2="65.143" gradientUnits="userSpaceOnUse"/><linearGradient xlink:href="#d" id="o" x1="63.982" y1="80.084" x2="80.57" y2="80.084" gradientUnits="userSpaceOnUse"/><linearGradient xlink:href="#a" id="p" x1="69.512" y1="89.211" x2="72.124" y2="89.211" gradientUnits="userSpaceOnUse"/><linearGradient xlink:href="#a" id="q" x1="75.504" y1="87.299" x2="78.279" y2="87.299" gradientUnits="userSpaceOnUse"/><linearGradient xlink:href="#e" id="r" x1="34.627" y1="82.231" x2="48.018" y2="82.231" gradientUnits="userSpaceOnUse"/><linearGradient xlink:href="#d" id="s" x1="38.512" y1="82.231" x2="44.133" y2="82.231" gradientUnits="userSpaceOnUse"/><linearGradient xlink:href="#e" id="t" x1="66.899" y1="25.637" x2="84.764" y2="25.637" gradientUnits="userSpaceOnUse"/><linearGradient xlink:href="#a" id="u" x1="73.09" y1="25.637" x2="84.764" y2="25.637" gradientUnits="userSpaceOnUse"/><linearGradient xlink:href="#d" id="v" x1="65.965" y1="25.638" x2="85.697" y2="25.638" gradientUnits="userSpaceOnUse"/><linearGradient xlink:href="#b" id="w" x1="47.555" y1="33.85" x2="69.412" y2="33.85" gradientUnits="userSpaceOnUse"/><linearGradient xlink:href="#d" id="x" x1="73.782" y1="25.638" x2="77.881" y2="25.638" gradientUnits="userSpaceOnUse"/><linearGradient xlink:href="#f" id="y" x1="-.074" y1="56.073" x2="111.926" y2="56.073" gradientUnits="userSpaceOnUse"/><linearGradient xlink:href="#e" id="g" x1="1.44" y1="56.073" x2="110.413" y2="56.073" gradientUnits="userSpaceOnUse"/><clipPath clipPathUnits="userSpaceOnUse" id="h"><circle style="fill:#000;stroke:#000;stroke-width:3.02636;stroke-linejoin:miter;stroke-dasharray:none;stroke-dashoffset:0;stroke-opacity:1;paint-order:normal" cx="55.926" cy="56.073" transform="rotate(-.075)" r="54.487"/></clipPath></defs><circle style="display:inline;fill:url(#g);stroke:none;stroke-width:3.02635;stroke-linejoin:miter;stroke-dasharray:none;stroke-dashoffset:0;stroke-opacity:1;paint-order:normal" cx="55.926" cy="56.073" transform="rotate(-.075)" r="54.487"/><g style="display:inline" clip-path="url(#h)"><path d="M7.062 52.159c-12.62 2.02-19.744 13.907-24.723 21.118-.858 13.392-.618 41.102 7.211 44.811 7.83 3.709 26.955 1.545 35.54 0v4.121c1.373.515 5.047 1.648 8.756 2.06 3.708.412 6.696-1.202 7.726-2.06v-9.787c.515-.343 2.987-1.957 8.756-5.666 7.211-4.635 11.332-16.482 9.787-24.723-1.16-6.18 3.605-18.543 6.18-26.784 9.787 2.06 22.148-1.03 23.179-14.937.647-8.732-9.375-23.496-26.888-18.108-17.512 5.388-14.318 29.955-21.014 37.166-6.18-6.18-18.027-9.848-34.51-7.211Z" fill="#bae6fd" stroke="#0c4a6e" stroke-width="3" stroke-linecap="round" style="fill:url(#i);stroke:url(#linearGradient8)"/><path d="M66.296 55.25c-1.717-.516-5.357-1.649-6.181-2.061" stroke="#0284c7" stroke-opacity=".37" stroke-width="3" stroke-linecap="round" style="opacity:1;fill:none;stroke-width:3;stroke-linejoin:miter;stroke-dasharray:none;paint-order:normal;stroke:url(#j)"/><path d="M41.572 59.37c-.687.858-2.678 2.781-5.15 3.605" stroke="#0284c7" stroke-opacity=".37" stroke-width="3" stroke-linecap="round" style="fill:none;stroke:url(#k)"/><circle cx="68.871" cy="42.888" r="2.06" style="fill:url(#l)"/><path d="M70.456 71.107c-1.19-4.117-2.194-6.304-5.215-9.352m7.548 9.352" stroke="#0284c7" stroke-opacity=".37" stroke-width="3" stroke-linecap="round" style="display:inline;fill:none;stroke:url(#m);stroke-width:2.33333;stroke-linejoin:miter;stroke-dasharray:none;stroke-opacity:1;paint-order:normal"/><path d="M39.77 76.407c-2.896-5.26-6.152-24.665 4.95-22.354" stroke="#0284c7" stroke-opacity=".37" stroke-width="3" stroke-linecap="round" style="display:inline;fill:none;stroke:url(#n);stroke-width:2.33333;stroke-linejoin:miter;stroke-dasharray:none;stroke-opacity:1;paint-order:normal"/><path d="M78.04 87.086c3.565.945-.207-17.538-7.32-15.931-9.219 2.081-5.161 18.944-.882 17.912" stroke="#0284c7" stroke-opacity=".37" stroke-width="3" stroke-linecap="round" style="display:inline;fill:none;stroke:url(#o);stroke-width:2.33333;stroke-linejoin:miter;stroke-dasharray:none;stroke-opacity:1;paint-order:normal"/><path style="display:inline;opacity:1;fill:url(#p);fill-rule:evenodd;stroke-width:.692707" d="M69.742 87.673h1.631c.416 0 .751.686.751 1.538 0 .851-.335 1.537-.75 1.537h-1.632c-.318 0-.296-3.075 0-3.075z"/><path style="display:inline;fill:url(#q);fill-rule:evenodd;stroke-width:.692707" d="m77.606 85.63-1.6.312c-.41.08-.607.816-.445 1.653.163.836.622 1.445 1.03 1.365l1.602-.31c.312-.061-.296-3.076-.587-3.02z"/><circle style="display:inline;fill:url(#r);fill-opacity:1;fill-rule:evenodd;stroke:url(#linearGradient20);stroke-width:1.86667;stroke-dasharray:none;stroke-opacity:1;opacity:1" cx="41.323" cy="82.231" r="5.762"/><circle style="display:inline;opacity:1;fill:url(#s);fill-opacity:1;fill-rule:evenodd;stroke:url(#linearGradient21);stroke-width:2.10324;stroke-dasharray:none;stroke-opacity:1" cx="41.323" cy="82.231" r="1.759"/><circle style="display:inline;fill:url(#t);fill-opacity:1;fill-rule:evenodd;stroke:none;stroke-width:1.86667;stroke-dasharray:none;stroke-opacity:1" cx="75.832" cy="25.637" r="8.933"/><path style="display:inline;fill:url(#u);fill-opacity:1;fill-rule:evenodd;stroke:none;stroke-width:1.86667;stroke-dasharray:none;stroke-opacity:1" d="M75.58 16.708a8.933 8.933 0 0 1 8.34 5.137 8.933 8.933 0 0 1-1.386 9.697 8.933 8.933 0 0 1-9.444 2.596l2.742-8.501z"/><circle style="display:inline;opacity:1;fill:none;fill-opacity:1;fill-rule:evenodd;stroke:url(#v);stroke-width:1.86667;stroke-dasharray:none;stroke-opacity:1" cx="75.831" cy="25.638" r="8.933"/><path style="display:inline;opacity:1;fill:url(#w);fill-opacity:.368627;fill-rule:evenodd;stroke:url(#linearGradient26);stroke-width:1.4;stroke-dasharray:none;stroke-opacity:1" d="M66.749 27.816c-5.135 1.115-9.95 3.28-15.24 5.72l-2.505 5.62c6.62-3.398 12.2-6.13 19.408-7.75z"/><circle style="opacity:1;fill:url(#x);fill-opacity:1;fill-rule:evenodd;stroke:none;stroke-width:4.12223;stroke-dasharray:none;stroke-opacity:1" cx="75.831" cy="25.638" r="2.049"/></g><circle style="display:inline;opacity:1;fill:none;stroke:url(#y);stroke-width:4.91342;stroke-linejoin:miter;stroke-dasharray:none;stroke-dashoffset:0;stroke-opacity:1;paint-order:normal" cx="55.926" cy="56.073" transform="rotate(-.075)" r="53.543"/></svg>